<svg width="120" height="107" fill="none" xmlns="http://www.w3.org/2000/svg"><path fill-rule="evenodd" clip-rule="evenodd" d="M10.102 80.027c1.184-7.529-2.13-15.247-5.696-22.348-.465-.926-.933-1.841-1.394-2.744-.976-1.91-1.925-3.767-2.764-5.554a2.693 2.693 0 0 1-.176-1.75l2.255-9.392a2.642 2.642 0 0 1 1.79-1.914c4.825-1.511 20.235-6.95 21.621-14.945a.755.755 0 0 1 .227-.416L39.107 8.31a.784.784 0 0 1 1.147.076c1.235 1.549 4.674 4.998 9.79 3.299l-1.588-1.6a.768.768 0 0 1 .013-1.107l6.01-5.666a.743.743 0 0 1 .53-.214h18.32c.655 0 1.02.768.605 1.272l-5.884 7.138a.779.779 0 0 0 .176 1.146c1.175.764 3.62 2.36 6.204 4.046 2.015 1.314 4.115 2.685 5.766 3.76 1.916 1.247 4.499.466 5.368-1.649.97-2.354 1.877-6.018 1.89-11.47a.72.72 0 0 1 .05-.277L90.05.492a.778.778 0 0 1 1.4-.101c1.247 2.165 3.477 6.761 3.477 12.125l1.222-.882a.775.775 0 0 1 1.07.152l2.672 3.475a.82.82 0 0 1 .151.54c-.176 1.877-.667 12.214 8.417 16.356a.759.759 0 0 1 .378.365l11.088 22.16a.836.836 0 0 1 .076.353v9.33c0 1.422-.605 2.77-1.676 3.714-4.347 3.853-15.712 14.542-16.405 21.945a.768.768 0 0 1-.769.693H81.607a.747.747 0 0 1-.365-.088c-1.26-.68-7.913-9.393-9.261-17.841-.101-.63-.895-.869-1.336-.39l-4.372 4.834a2.12 2.12 0 0 1-1.588.705 1.365 1.365 0 0 1-1.348-1.133c-.504-2.946-2.747-10.652-12.146-10.652-5.04 0-12.89 1.94-20.173 4.13 0 0-8.064 2.518-14.024 10.576-.202.277-.53.441-.882.441h-4.914c-.68 0-1.197-.604-1.096-1.272Zm89.194 25.144a2.431 2.431 0 0 1-3.717 1.41c-2.57-1.737-6.45-4.772-9.966-9.229-.517-.655-.05-1.624.794-1.624h13.986c.667 0 1.146.617.982 1.259l-2.079 8.184Z" fill="#C99B67"/></svg>