<svg width="120" height="121" fill="none" xmlns="http://www.w3.org/2000/svg"><path fill-rule="evenodd" clip-rule="evenodd" d="M65.805 12.13V.146L53.135 0l-4.75 8.134 5.807 5.995 11.613-2ZM52.26 26.113 36.777 10.13l-7.742 7.992L42.239 30.26l10.022-4.147ZM68.54 35.46l-7.73-5.803 1.405-6.526 13.272-1.011L92.907 36.1l-3.872 11.986-5.806 3.997-5.807-3.997v-5.993l-5.806-7.99-3.076 1.356Zm45.657 78.549h-3.871c-1.069 0-1.935-.894-1.935-1.997 0-1.104.866-1.998 1.935-1.998h3.871c1.069 0 1.936.894 1.936 1.998 0 1.103-.867 1.997-1.936 1.997Zm-.004-27.967h3.871c1.069 0 1.936-.894 1.936-1.998 0-1.103-.867-1.997-1.936-1.997h-3.871c-1.068 0-1.935.894-1.935 1.998 0 1.103.867 1.997 1.935 1.997Zm-23.224 0 11.613-7.99V70.06L90.969 58.075l-7.742 7.99-7.742-7.99-7.742 5.993 7.742 9.988-5.806 11.986-5.807-9.988-13.549-5.993 7.742-15.981 5.807-7.99-13.549-7.991-7.742 7.99L17.42 20.12 1.936 38.1l4.548 19.34L0 64.069l5.807 17.979 46.452 23.971 5.806-9.988 11.614 7.991 7.742 15.981 9.677-15.981h15.484l1.936-11.986-13.549-5.993Z" fill="#C99B67"/></svg>