<svg width="515" height="571" fill="none" xmlns="http://www.w3.org/2000/svg"><path fill-rule="evenodd" clip-rule="evenodd" d="M125.871 299.421c-1.56 1.508-1.636 4.604-1.862 6.604.997-4.789 5.66-9.237 8.529-12.973 2.79-3.637 5.333-7.479 7.495-11.531.048-.088 4.751-9.166 1.125-8.16-10.065 2.747-8.698 20.216-15.287 26.06Zm15.728-74.096c1.717 4.186 10.694 24.122 16.97 20.005 4.995-3.277-.171-15.7-2.87-18.896-4.498-5.316-9.583-10.035-13.754-15.66-.72 5.085-2.421 9.541-.346 14.551Zm139.947 40.298c4.432.501 8.883.979 13.341 1.154-5.074-.581-10.056-1.281-15.17-1.335l1.829.181Zm-246.76 18.282c-.291-2.494 5.7-4.986 7.202-5.917 4.118-2.555 8.43-5.466 10.202-9.827 1.992-3.262-6.786-3.632-9.177-4.724-1.677-.765-5.715-2.914-6.131-4.966-.891-4.395 5.85-4.844 8.886-5.394 4.447-.804 6.704-.712 2.97-3.589-4.015-3.092-13.7-5.427-13.016-12.335.584-5.884 10.658-5.704 14.64-5.568 7.503.252 13.529 2.957 19.45 7.406 1.382 1.036 9.873 6.848 9.865 4.361-.646-5.605-7.185-8.339-8.594-13.679-.8-3.035-.218-5.501-1.435-8.606-1.2-3.064-4.075-7.85-1.324-11.015 1.747-2.008 4.533-1.674 6.378-.423 4.583 2.679 7.072 6.702 10.774 10.339 2.71 2.661 6.493 2.944 8.57 6.381 3.106 5.297 6.09 11.12 9.716 16.251 1.137 1.608 6.574 8.671 8.079 4.765.848-2.2-5.115-7.948-6.031-9.088-2.187-2.725-4.657-5.163-5.273-8.781-.354-2.073.602-3.944.313-5.561-.855-4.779-5.75-9.492-7.222-14.217-1.32-4.24-4.196-14.839-1.484-18.818 3.712-5.449 8.139 2.524 10.54 5.568 2.658 3.372 4.874 6.651 8.063 9.354 2.814 2.388 4.715 4.697 6.211 8.233 2.766 6.532 3.953 13.343 5.816 19.94a.765.765 0 0 1-.03-.065c1.154 3.813 3.123 8.012 6.105 10.8 5.001 4.674 4.251.529 2.473-4.249-2.68-7.205-6.48-13.99-9.186-21.167-.964-2.557-1.797-5.295-1.295-8.072.336-1.863 1.886-3.015 2.278-4.329 1.369-4.565-5.908-33.9 4.134-32.895 5.422.542 5.526 12.995 6.421 16.508 1.428 5.611 1.643 10.241 6.017 14.269.107-2.309 2.343-3.359 2.573-5.335.272-2.35-1.569-4.959-2.399-7.033-2.28-5.7-4.2-11.634-4.982-17.718-2.383-18.566 12.062-1.158 16.482 4.936a396.593 396.593 0 0 0 2.928 3.961c2.577 3.447 3.771 3.244 6.849 5.504 5.237 3.845 5.768 15.188 6.198 21.208.135 1.857 3.003 31.321 8.686 25.464 2.866-2.953-.374-16.142-1.518-20.045-1.76-6-8.035-15.275-5.668-21.612.744-1.99 2.54-2.432 3.315-4.188 1.816-4.099-.734-10.727-.722-15.015.026-8.726 6.007-13.397 9.403-2.62 1.343 4.265 2.488 6.868 4.637 10.834 2.451 4.525 1.048 9.478 2.617 14.011 1.298 3.746 1.842.524 4.721 3.67 2.389 2.614 1.182 9.229.717 12.447-.646 4.469-5.775 22.36.366 24.076 5.597 1.564 7.006-10.475 7.186-13.894.453-8.551-3.222-15.882-5.937-23.712-1.323-3.816-3.015-8.365-3.065-12.458-.042-3.588 1.726-5.824 2.985-8.936 1.465-3.624 6.917-20.624 13.43-12.96 4.376 5.15-.043 14.071 3.629 19.482 1.698-4.307 2.015-16.616 8.763-16.943 6.515-.315 6.2 13.139 6.586 17.727.236 2.815-1.722 18.451.995 20.919 2.838 2.575 5.04-1.511 6.511-3.67 2.518-3.69 23.742-38.079 29.216-32.263 4.246 4.509-7.985 13.594-6.913 17.464.393 1.423 1.947.778 3.109 1.566 4.259 2.891 4.478 5.504 1.08 9.621 12.053 5.067-4.339 12.206-9.69 14.768-3.645 1.745-19.407 8.913-14.498 15.512 1.651 2.219 7.952 2.076 10.389 3.438 4.7 2.628 4.212 7.557-.577 9.812-3.293 1.553-7.649 1.575-11.196 1.114-2.036-.263-7.36-2.484-9.126-1.265 6.285 6.093-.533 6.451-6.495 7.039-4.459.44-16.017 1.078-17.582 6.882 6.838 1.165 13.934.47 20.82 1.149 7.539.746 14.95 1.08 22.797 1.077 14.88-.008 30.434.636 45.174 2.306 7.21.816 14.504 1.178 21.749 1.561 2.613.137 16.598-1.469 16.291 3.767-.416 7.08-19.542.652-23.68 1.8-26.942-1.94-54.002-2.327-80.826-4.929 2.142 1.162 6.194 6.396 3.598 8.79 1.936.783 5.762 1.116 6.886 3.086 2.484 4.361-1.982 2.623-3.083 4.103-1.879 2.532 3.876 4.737 5.889 5.963 9.384 5.708 17.902 13.651 26.076 20.977 4.485 4.02 12.54 19.433 1.451 20.347-5.534.458-12.087-5.577-15.772-8.939-2.326-2.12-7.418-9.349-10.881-9.756-1.241 3.895 1.682 13.056 2.181 16.875 1.059 8.075.894 14.032-4.796 20.405-13.518 15.142-12.127-18.432-14.949-17.815-1.985.434-3.44 15.871-3.723 17.821-.625 4.323-3.656 16.346-10.221 15.214-5.508-.95-4.886-12.215-5.17-16.035-.239-3.203-1.486-6.683-1.363-10.265.1-2.947 1.331-5.779 1.485-8.642.161-2.977-1.777-5.13-1.64-8.492.152-3.774 1.308-7.938 1.821-11.741.857-6.355 2.386-15.025-2.193-20.529-7.248 9.137-4.065 23.649-4.575 34.402-.256 5.378-.286 11.985-5.241 15.11-1.991 1.255-.549-.79-2.893 1.217-.526.45-.909 1.393-1.277 1.974-2.631 4.168-4.684 8.636-7.201 12.862-1.56 2.623-5.895 11.72-9.769 11.553-7.025-.303-1.311-24.035-.708-28.644.458-3.485 1.537-7.142 1.825-10.578.266-3.153-1.089-5.681.148-9.026 1.601-4.332 4.592-8.219 6.664-12.326 2.786-5.524 4.222-11.021 5.075-17.11.354-2.521 1.511-8.338-1.212-9.596-4.376-2.018-5.823 7.481-6.512 9.888-2.037 7.131-2.257 15.52-6.262 22.828-4.14 7.561-1.487 16.307-4.365 24.219-1.04 2.858-2.055 4.03-4.492 5.68-2.71 1.838-4.061 2.641-6.085 5.979-1.835 3.025-9.872 18.452-14.376 12.075-1.461-2.069.404-5.348.999-7.366 1.311-4.448 2.376-8.979 3.795-13.394.901-2.803 2.603-5.8 2.638-8.809.034-2.854-1.079-4.631.08-7.607 1.56-4.008 5.964-7.938 6.74-12.048.742-3.918.298-8.063 1.501-12.19.959-3.283 8.638-19.598 6.351-21.263-4.646-3.388-10.628 17.697-11.116 19.292-3.111 10.171-4.908 21.421-8.403 31.555-1.175 3.406-3.379 4.735-5.193 7.129-2.409 3.18-3.452 8.001-5.654 11.48-1.754 2.772-6.345 10.022-9.076 4.918-1.975-3.687 1.051-11.513 1.627-15.486.654-4.491.97-8.969 2.134-13.368.25-.947 1.13-2.698 1.086-3.623-.127-2.562-2.978-3.851-3.026-6.826-.087 2.984-.85 5.238-2.914 7.308-.538.542-2.159.99-2.925 1.576-2.314 1.77-4.064 4.846-5.899 7.109-2.58 3.175-17.6 17.124-15.101 4.611 1.068-5.348 3.057-10.562 5.199-15.55 1.681-3.92 4.537-8.39 5.007-12.657.487-4.423-.08-5.901 2.972-9.945 3.138-4.155 8.425-9.141 8.713-14.625.582-11.172-15.45 11.703-17.017 14.277-3.165 5.197-6.897 10.502-12.132 13.782-5.837 3.659-12.043 5.294-17.315 10.024-2.35 2.11-9.494 9.587-12.913 5.852-3.367-3.678 4.645-12.019 6.402-14.607 1.816-2.674 4.233-5.353 5.756-8.149 1.38-2.539 1.637-5.288 2.83-7.916 3.38-7.455 10.642-9.323 15.824-14.912 2.736-2.952 2.996-5.421-2.01-4.519-2.703.484-5.4 2.934-7.832 4.272-3.657 2.015-7.487 3.764-11.23 5.618-5.052 2.5-33.096 16.868-34.47 4.774Z" fill="#89B99A"/><path fill-rule="evenodd" clip-rule="evenodd" d="M385.663 434.318c-14.506-32.587-35.227-63.479-55.19-92.928 6.511 2.493 15.483 1.936 21.882-.498 7.191-2.733 11.246-8.324 14.695-14.905.49-.934 4.054-10.704 5.882-9.978 3.365 1.338 2.183 23.538 2.29 26.276.38 9.774 1.507 19.424 2.73 29.127 2.639 20.912 5.677 41.922 7.711 62.906Zm-64.617-112.136c-4.929-.139-7.945-7.429-10.747-11.316 5.305.317 28.471-3.696 30.635 1.956 3.514 9.193-15.396 9.476-19.888 9.36Zm-93.564-177.873c-.309 2.921-1.422 14.198-5.635 10.251-2.85-2.673-3.484-13.447-4.119-16.795-1.297-6.822-3.488-15.285-2.456-22.247 1.956-13.178 9.748-3.286 11.031 3.973 1.417 8.003 2.017 16.704 1.179 24.818Zm29.1 61.446c6.116-3.041 3.14 3.468.657 6.468-6.98 8.441-7.294-2.166-.657-6.468Zm-9.915-32.248c-.571-6.689.913-15.544 3.408-21.639 1.959-4.788 7.123-8.918 9.39-2.329 1.883 5.469-4.013 18.776-6.94 23.685-2.379 3.993-5.433 7.284-5.858.283Zm-25.218-.458c-.166 12.713-11.591 16.245-9.811 1.887 1.09-8.784 9.118-14.559 9.811-1.887Zm15.701 78.266c-.178 5.264-12.973 22.481-12.769 12.304.058-2.902 12.651-17.077 12.769-12.304Zm-30.485-20.825c-4.002 2.067-15.133 9.195-18.879 7.16-5.986-3.252 1.875-9.935 4.838-11.561 3.236-1.778 12.048-6.042 16.164-4.992 7.549 1.932 2.024 7.018-2.123 9.393Zm-49.021-80.956c-9.716 3.055-11.898-8.375-13.257-15.206-.888-4.468-4.644-13.999.547-16.613 9.33-4.706 16.303 24.913 12.71 31.819Zm30.776 4.358c-.985-4.591-1.646-9.247-2.6-13.842-.569-2.734-3.991-12.499-3.249-14.667 2.35-6.877 7.688-2.8 10.485 2.688 2.869 5.635 5.325 17.04 4.368 23.085-.888 5.607-6.798 11.641-9.004 2.736Zm-12.581-48.5c-1.683-7.983 4.25-13.97 9.465-4.745 5.901 10.433-5.545 19.715-9.465 4.745Zm-.082 138.172c-.343 7.116-25.391 15.42-30.493 11.623-6.717-4.998 8.475-8.893 12.76-10.61 3.62-1.447 17.529-9.229 17.733-1.013Zm-41.487-14.755c-6.258 1.114-12.736 2.879-19.084 3.121-8.719.329-8.169-4.493-1.232-8.932 6.063-3.879 16.689-3.912 23.667-5.934 5.574-1.616 22.342-12.369 25.848-8.181 7.9 9.438-23.285 18.818-29.199 19.926Zm-1.098 27.755c-.707 9.65-26.504 10.358-32.257 10.358 4.091-2.343 31.824-23.802 32.257-10.358Zm-43.43-53.292c-17.21-2.281 1.379-13.144 7.428-14.892 4.391-1.272 14.702-4.04 18.65-.08 10.361 10.392-21.652 15.58-26.077 14.972Zm5.432-34.984c.984-5.928 30.611-12.082 31.696-6.46.854 4.426-31.553 19.117-31.696 6.46Zm40.633 11.281c12.172-6.688 26.882 2.179 8.895 9.551-3.53 1.445-12.783 5.374-16.234 2.272-4.874-4.379 4.126-10.173 7.339-11.823Zm311.925 57.325c-2.333-5.284-5.713-12.679-10.86-8.42-1.999 1.652-4.628 9.115-6.142 11.866-5.305 9.626-10.996 20.397-20.751 26.232-5.839 3.492-25.444 8.125-19.473-3.702 5.091-10.09 19.447-18.052 28.302-24.862 4.105-3.158 13.737-9.52 16.198-14.446 1.875-3.757-.805-13.294-7.446-11.856-3.014.653-4.236 9.159-5.544 11.486-2.069 3.674-5.349 6.39-8.302 9.322-4.679 4.651-9.832 11.636-16.624 13.374-8.169 2.093-10.148-2.767-5.396-9.45 4.648-6.53 14.046-10.103 20.088-15.243 3.005-2.559 12.409-9.984 10.742-14.418-3.633-9.655-11.304 3.187-13.831 5.702-1.98 1.966-14.077 14.729-17.166 11.758-3.713-3.57 6.564-15.458 8.494-18.024 4.07-5.415 5.569-4.941 1.439-8.456-2.359-2.011-7.488-4.042-10.327-3.92-6.967.297-14.623 5.946-21.872 6.929-3.001.408-12.973-.734-14.626 3.636-2.546 6.728 25.865 26.259 9.663 28.467-12.522 1.7-22.155-18.39-32.982-11.585-17.112 10.758 7.388 20.751 16.832 24.263 4.235 1.577 18.501 3.488 15.652 10.972-2.319 6.085-14.053 3.534-18.553 2.314-8.527-2.308-15.96-7.282-23.758-11.202-2.104-1.055-10.426-6.695-13.164-5.928-3.922 1.105-9.954 15.405-8.098 19.1 2.289 4.551 17.338 4.528 22.365 5.135 8.495 1.022 18.965 1.745 25.696 7.766 7.432 6.646-2.559 6.581-8.007 5.805-11.755-1.679-23.394-7.046-34.739-10.452-3.957-1.191-9.753-3.935-13.817-3.779-6.153.239-4.916.786-2.91 5.992 4.475 11.62 10.005 13.423 22.236 15.499 5.579.943 30.476.136 31.669 7.825-6.508 4.159-20.899.112-28.016-.692-5.207-.591-13.778-.223-18.063-3.192-5.834-4.051-12.374-17.653-16.391-23.249-7.127-9.927-14.131-19.797-22.085-29.106 9.454 2.308 18.132 6.233 28.08 4.792 10.876-1.578 21.752-7.669 24.445-18.93.986-4.12.713-8.477.826-12.671.034-1.34.234-2.702.205-4.045-.125-5.838.54-7.671-3.835-3.886-4.978 4.307-9.176 14.816-17.128 16.062-8.804 1.382-3.565-4.599.295-8.012 9.534-8.429 19.757-15.572 22.539-29.171 1.517-7.417 1.893-15.683 1.277-23.29-.594-7.312-1.912-7.221-4.92-1.577-6.526 12.243-15.776 21.947-27.535 29.404-2.253 1.431-7.341 4.973-10.276 2.394-2.657-2.332-.197-6.006.87-8.86 2.353-6.307 5.414-12.066 8.461-18.05 4.011-7.884 10.676-18.396 11.775-27.205.715-5.72-3.687-8.642-7.434-12.64-4.383-4.678-8.245-9.582-11.452-15.145-2.236-3.874-4.496-9.58-8.166-12.343-5.696-4.291-4.792.45-4.79 5.103.003 3.717 1.738 40.597-6.7 37.877-8.374-2.696-1.396-36.555-1.842-44.182-.593-10.105-14.538-10.118-22.716-12.76-4.312-1.396-8.301-2.297-12.32-4.336-1.522-.772-3.052-3.633-4.91-3-4.22 1.436 10.589 18.007 5.834 22.892-8.027 8.248-12.903-16.109-14.523-20.623-1.36-3.797-2.994-8.249-5.093-11.64-3.244-5.236-3.863-4.11-9.506-3.02-5.643 1.091-18.721-.342-23.218 2.875-4.349 3.112.505 6.189 2.964 9.651 2.329 3.277 9.832 14.357 2.447 15.77-2.667.511-11.315-8.073-13.595-9.887-4.841-3.855-3.801-2.983-8.25-2.315-5.171.773-11.01 1.844-16.032 3.084-6.299 1.557-7.85 2.438-3.719 7.25 4.845 5.638 12.551 9.507 14.463 17.078.97 3.284-.222 6.733-4.214 6.402-4.26-.351-5.622-6.35-6.952-9.623-1.685-4.144-4.662-13.794-9.628-15.12-3.103-.828-7.371 2.599-10.176 3.718-1.66.662-8.983 2.084-9.773 4.223-.866 2.349 6.823 8.385 8.794 11.176 5.03 7.118 10.263 15.816 11.631 23.921.386 13.049-12.983-4.08-14.948-8.22-2.181-4.591-8.341-27.82-16.058-26.291-2.102.417-3.853 5.266-5.683 6.729-2.242 1.792-4.948 2.335-7.525 3.331-3.822 1.477-7.646 2.953-11.34 4.684-1.14.535-4.255 2.109-4.881 2.474-.472.277-1.424-.03-1.998.319-3.92 2.389-6.172 7.781-9.831 10.796-1.642 1.352-8.686 4.793-8.407 6.966.254 1.98 31.715 6.62 36.399 7.613 3.562.754 18.746 1.616 20.246 5.319 1.465 3.621-1.71 4.531-4.797 5.378-7.66 2.101-17.026 1.852-24.93 2.475-5.584.44-28.193-.381-31.642 4.787-3.56 5.336-.287 9.553 3.83 10.74 4.507 1.303 11.327.019 15.878-.186 3.706-.167 27.601-3.645 28.27 1.853.725 5.982-27.644 8.139-30.478 8.61-5.416.898-14.343.274-19.266 2.526-4.413 2.023-2.882 2.459-2.117 6.571 2.64 14.211 4.329 11.651 16.845 9.752 4.792-.728 11.005-2.26 15.212.744 5.027 3.583 4.36 7.386-.666 9.553-3.454 1.492-10.331 1.245-14.051 1.418-4.349.204-8.713-.007-13.045-.386-1.274-.111-6.748-1.585-8.04-.886-5.08 2.744 4.786 20.625 9.693 21.768 2.382.556 6.465-.704 8.906-.931 8.532-.804 17.131-.828 25.687-1.549 4.818-.405 27.61-4.697 22.508 6.389-2.82 6.125-19.16 7.739-24.654 9.026a233.118 233.118 0 0 1-15.926 3.156c-5.006.812-7.796.001-5.08 5.723 2.767 5.823 20.813 24.537 27.05 24.616 5.118.062 3.464-2.472 8.824 1.478 1.967 1.453 3.885 3.713 5.538 5.506 6.352 6.872 12.629 16.502 22.18 19.192 20.412 5.752 51.53-19.256 66.22-30.85 2.919-2.302 14.348-13.883 19.028-10.581 4.919 3.469-5.28 14.329-7.299 16.408-11.246 11.591-24.906 22.434-40.366 27.515-4.119 1.352-15.34 1.931-19.383 4.64-4.01 2.683-.313 4.04 3.368 7.023 7.851 6.355 18.269 15.617 28.923 13.249 14.026-3.12 22.723-16.656 31.424-27.095 4.827-5.789 27.468-33.152 25.461-10.141-1.002 11.455-9.543 23.838-18.116 30.937-1.602 1.325-11.49 5.093-11.403 6.229.135 1.726 5.713 3.012 6.722 3.335 9.788 3.139 39.533 9.036 45.015-3.428 3.762-8.552 1.634-23.02 1.269-32.029-.115-2.8-1.609-7.425 2.443-7.912 5.191-.625 7.794 17.559 7.897 20.41.212 5.862-1.254 11.803-4.034 17.553-1.222 2.527-4.093 4.608-.689 5.358 1.234.27 8.875-5.692 10.079-6.694 6.131-5.123 7.139-11.475 7.426-19.04.765-20.417-6.72-41.133-16.031-59.095 11.781 14.914 22.913 30.249 33.597 45.971 2.67 3.928 4.361 8.578 7.002 12.376 3.812 5.475 8.714 10.106 12.666 15.941-1.307-.264-12.436-4.474-13.075-1.391-.58 2.805 8.683 8.154 10.566 9.4 8.474 5.621 11.952 6.382 18.135 15.654 15.386 23.08 29.184 46.794 42.598 71.052 6.556 11.855 13.535 23.588 19.118 35.944 2.801 6.197 4.896 12.725 6.85 19.232 1.343 4.474 2.282 17.674 7.656 19.596 6.246 2.237 5.373-4.97 4.4-8.422-2.195-7.78-3.608-15.284-4.925-23.309-2.14-13.053-3.421-26.23-5.884-39.241-3.074-16.236-5.319-32.522-7.56-48.886-1.456-10.621-2.545-21.382-3.099-32.094-.38-7.356.66-15.091-.582-22.385 6.896 7.571 4.206 19.755 16.758 21.884 9.7 1.647 17.536-5.542 23.811-11.95 5.116-5.225 12.511-13.156 14.132-20.525 1.932-8.794-6.15-3.166-11.895-1.787-3.708.892-14.153 5.605-16.768 1.917-3.656-5.161 11.676-9.884 14.7-11.412 6.654-3.359 14.074-7.507 19.417-12.864 2.111-2.118 12.382-26.363 3.389-23.819-1.14.322-3.015 3.668-4.022 4.81-4.672 5.297-9.847 9.981-15.367 14.372-6.017 4.783-19.24 16.131-28.128 12.514 4.82-10.873 20.934-15.198 30.06-21.738 5.864-4.201 11.053-8.968 14.902-15.14 1.913-3.071 6.862-11.713 5.255-15.337Z" fill="#02362C"/></svg>