<svg width="120" height="143" fill="none" xmlns="http://www.w3.org/2000/svg"><path fill-rule="evenodd" clip-rule="evenodd" d="M16.703 17.397a4.958 4.958 0 0 1-.366-.216h.025l.028-.042a.603.603 0 0 0 .061-.104c.033-.012.068-.022.102-.032.035-.01.07-.02.102-.032.192.136.26.279.33.43.033.073.069.148.12.225 7.239 4.509 11.287 2.089 14.119-4.2.391-.907.767-1.887 1.134-2.931C35.703.751 43.572.632 51.183.518 53.62.48 56.028.445 58.254.093c5.37-.833 3.657 4.129 1.33 6.517-.767.798-1.67 1.47-2.604 2.166-2.353 1.753-4.911 3.658-6.038 8.114 2.17 0 4.248.013 6.262.026 4.423.029 8.54.056 12.656-.067 7.696-.226 9.002 2.55 4.758 8.726-.93 1.362-1.682 2.85-2.432 4.335-.936 1.852-1.87 3.7-3.142 5.29-4.448 5.52-4.35 9.292 2.946 11.866 1.836.648 4.203 2.267 4.668 3.91 2.215 7.784 7.517 13.633 12.804 19.466 5.858 6.461 11.696 12.902 13.296 21.93.075.416.126.8.172 1.152.255 1.928.382 2.887 3.542 2.62 5.386-.502 11.76-.566 13.262 6.249 1.445 6.5-3.232 10.637-8.235 14.069-.681.462-1.201 1.139-1.781 1.896-.254.331-.519.677-.814 1.026.461 1.997 2.206 2.05 3.84 2.1 1.631.049 3.15.095 3.171 2.069.032 3.286-3.518 4.816-5.975 5.569-12.527 3.861-25.724 5.172-38.57 4.913-6.858-.15-12.86 2.024-18.83 4.186-4.332 1.569-8.648 3.132-13.261 3.796-.676.1-1.339.249-2.015.402-2.445.552-5.06 1.142-9.036-.443 4.716-1.698 7.83-5.142 10.969-8.611 4.683-5.176 9.417-10.409 19.596-9.982a869.904 869.904 0 0 1-4.425-1.841c-2.344-.98-3.816-1.596-5.32-2.142-6.847-2.452-7.761-7.22-2.652-12.741 2.88-3.1 4.872-6.427-1.657-7.77-3.59-.734-2.733-2.257-1.783-3.946.685-1.218 1.418-2.523.567-3.68-1.094-1.49 2.497-1.91 4.57-1.651 6.138.785 14.813 1.837 12.43-7.059-.194-.719-.377-1.53-.573-2.393-1.354-5.981-3.29-14.532-13.203-13.237-10.74 1.4-14.111-1.239-7.395-10.904-1.366-.606-3.256.094-5.068.766-3.438 1.273-6.594 2.443-5.354-5.614.074-.51-.938-1.733-1.142-1.676-.781.245-1.579 1.013-2.372 1.776-1.719 1.653-3.416 3.285-4.867-.465-1.037-2.673.717-3.38 2.775-4.21 2.092-.843 4.5-1.813 4.61-5.107-.161-.521-1.37-.533-2.67-.545-2.173-.021-4.603-.045-2.846-2.45 5.845-8 1.373-11.36-3.631-15.122-.515-.387-1.036-.779-1.552-1.18-.676-.523-.43-1.31-.167-2.152.125-.398.253-.808.29-1.208 0-.012-.005-.028-.009-.044a.207.207 0 0 1-.008-.045c.025-.38-.016-.769-.253-1.117-.135-.092-.26-.16-.385-.23ZM3.358 76.313C1.71 76.045-.168 74.329.012 71.86c.36-4.532 14.29-13.768 20.477-13.404 5.697.31 7.535 4.151 9.262 7.76.7 1.464 1.381 2.889 2.294 4.026-.269 5.342-3.525 8.361-7.027 8.377-6.875.085-13.802-1.035-20.646-2.143l-1.014-.163Zm19.725-73.75c-7.713 2.04-12.16 6.103-11.614 14.319-5.166.504-3.668 2.588-2.287 4.508.216.3.43.597.614.883.399-.9 1.093-1.745 1.809-2.617.456-.556.921-1.123 1.325-1.722.453-.116.907-.235 1.362-.354.716-.187 1.433-.374 2.147-.552.696-1.522 1.892-2.808 3.105-4.112 2.473-2.66 5.017-5.396 3.539-10.354ZM9.52 24.554c1.24-.429.906-1.287.27-2.282-.319.696-.506 1.424-.27 2.282Z" fill="#C99B67"/></svg>